# AST/ASF file generated using VICON BodyLanguage
# -----------------------------------------------
:version 1.10
:name VICON
:units
  mass 1.0
  length 0.45
  angle deg
:documentation
   .ast/.asf automatically generated from VICON data using
   VICON BodyBuilder and BodyLanguage model FoxedUp or BRILLIANT.MOD
:root
   order TX TY TZ RX RY RZ
   axis XYZ
   position 0 0 0  
   orientation 0 -0 0 
:bonedata
  begin
     id 1 
     name lhipjoint
     direction 0.515797 -0.759363 0.396637 
     length 2.47888 
     axis 0 -0 0  XYZ
  end
  begin
     id 2 
     name lfemur
     direction 0.34202 -0.939693 0  
     length 6.81885  
     axis 0 -0 20  XYZ
    dof rx ry rz
    limits (-160.0 20.0)
           (-70.0 70.0)
           (-60.0 70.0)
  end
  begin
     id 3 
     name ltibia
     direction 0.342037 -0.939687 0   
     length 7.89258   
     axis 0 -0 20   XYZ
    dof rx
    limits (-10.0 170.0)
  end
  begin
     id 4 
     name lfoot
     direction 0.173497 -0.476678 0.861787   
     length 2.51543   
     axis -90 -1.13533e-015 20   XYZ
    dof rx rz
    limits (-45.0 90.0)
           (-70.0 20.0)
  end
  begin
     id 5 
     name ltoes
     direction 1.53564e-011 -4.21897e-011 1   
     length 1.21388   
     axis -90 -1.13533e-015 20   XYZ
    dof rx
    limits (-90.0 20.0)
  end
  begin
     id 6 
     name rhipjoint
     direction -0.489454 -0.772941 0.403729   
     length 2.43534  
     axis 0 -0 0  XYZ 
  end
  begin
     id 7 
     name rfemur
     direction -0.34202 -0.939693 0   
     length 7.10357   
     axis 0 -0 -20   XYZ
    dof rx ry rz
    limits (-160.0 20.0)
           (-70.0 70.0)
           (-70.0 60.0)
  end
  begin
     id 8 
     name rtibia
     direction -0.34202 -0.939693 0   
     length 9.16127   
     axis 0 -0 -20   XYZ
    dof rx
    limits (-10.0 170.0)
 end
 begin
     id 9 
     name rfoot
     direction -0.270974 -0.748671 0.605033   
     length 1.74894  
     axis -90 1.13533e-015 -20   XYZ
    dof rx rz
    limits (-45.0 90.0)
           (-20.0 70.0)
  end
  begin
     id 10 
     name rtoes
     direction -1.53557e-011 -4.21759e-011 1   
     length 0.787585   
     axis -90 1.13533e-015 -20   XYZ
    dof rx
    limits (-90.0 20.0)
  end
  begin
     id 11 
     name lowerback
     direction -0.0140249 0.999561 0.0260968   
     length 2.16963   
     axis 0 -0 0   XYZ
    dof rx ry rz
    limits (-20.0 45.0)
           (-30.0 30.0)
           (-30.0 30.0)
  end
  begin
     id 12 
     name upperback
     direction 0.00860018 0.999959 -0.002711   
     length 2.1726   
     axis 0 -0 0   XYZ
    dof rx ry rz
    limits (-20.0 45.0)
           (-30.0 30.0)
           (-30.0 30.0)
  end
  begin
     id 13 
     name thorax
     direction 0.015211 0.999782 -0.0143191   
     length 2.17061   
     axis 0 -0 0   XYZ
    dof rx ry rz
    limits (-20.0 45.0)
           (-30.0 30.0)
           (-30.0 30.0)
  end
  begin
     id 14 
     name lowerneck
     direction -0.0140143 0.999447 0.030145   
     length 2.26749   
     axis 0 -0 0   XYZ
    dof rx ry rz
    limits (-20.0 45.0)
           (-30.0 30.0)
           (-30.0 30.0)
  end
  begin
     id 15 
     name upperneck
     direction 0.118062 0.961438 -0.248392   
     length 2.22728   
     axis 0 -0 0   XYZ
    dof rx ry rz
    limits (-20.0 45.0)
           (-30.0 30.0)
           (-30.0 30.0)
  end
  begin
     id 16
     name head
     direction 0.0431885 0.9954 -0.085514  
     length 2.28786  
     axis 0 -0 0   XYZ
    dof rx ry rz
    limits (-20.0 45.0)
           (-30.0 30.0)
           (-30.0 30.0)
  end
  begin
     id 17 
     name lclavicle
     direction 0.912126 0.409548 0.0172323  
     length 4.31571  
     axis 0 -0 0   XYZ
    dof ry rz
    limits (-20.0 10.0)
           (0.0 20.0)
  end
  begin
     id 18 
     name lhumerus
     direction 1 -4.48977e-011 1.93091e-027   
     length 5.13658   
     axis 180 -30 -90   XYZ
    dof rx ry rz
    limits (-60.0 90.0)
           (-90.0 90.0)
           (-90.0 90.0)
  end
  begin
     id 19
     name lradius
     direction 1 -4.48916e-011 6.84018e-027   
     length 3.22473   
     axis 180 -30 -90   XYZ
    dof rx
    limits (-10.0 170.0)
  end
  begin
     id 20
     name lwrist
     direction 1 -4.48987e-011 7.01981e-027   
     length 1.61236   
     axis -4.37994e-015 90 90   XYZ
    dof ry
    limits (-180.0 0.0)
 end
  begin
     id 21 
     name lhand
     direction 1 -4.49037e-011 1.40335e-026   
     length 0.936406   
     axis -8.96029e-015 90 90   XYZ
    dof rx rz
    limits (-90.0 90.0)
           (-45.0 45.0)
  end
  begin
     id 22 
     name lfingers
     direction 1 -4.48886e-011 2.8104e-026   
     length 0.754955   
     axis -1.79203e-014 90 90   XYZ
    dof rx
    limits (0.0 90.0)
  end
  begin
     id 23
     name lthumb
     direction 0.707107 -6.34937e-011 0.707107   
     length 1.08397   
     axis -90 45 -4.48555e-014   XYZ
    dof rx rz
    limits (-45.0 45.0)
           (-45.0 45.0)
  end
  begin
     id 24 
     name rclavicle
     direction -0.947962 0.317997 0.0156638   
     length 4.86918  
     axis 0 -0 0   XYZ 
    dof ry rz
    limits (-10.0 20.0)
           (-20.0 0.0)
  end
  begin
     id 25 
     name rhumerus
     direction -1 -4.48951e-011 2.80534e-018  
     length 5.60911   
     axis 180 30 90   XYZ
    dof rx ry rz
    limits (-90.0 60.0)
           (-90.0 90.0)
           (-90.0 90.0)
  end
  begin
     id 26 
     name rradius
     direction -1 -4.4898e-011 2.11315e-027   
     length 3.38704   
     axis 180 30 90   XYZ
    dof rx
    limits (-10.0 170.0)
  end
  begin
     id 27 
     name rwrist
     direction -1 -4.48933e-011 7.02314e-027   
     length 1.69352   
     axis -4.37994e-015 -90 -90   XYZ
    dof ry
    limits (-180.0 0.0)
  end
  begin
     id 28
     name rhand
     direction -1 -4.48937e-011 1.40458e-026   
     length 0.755878   
     axis -8.96029e-015 -90 -90   XYZ
    dof rx rz
    limits (-90.0 90.0)
           (-45.0 45.0)
  end
  begin
     id 29
     name rfingers
     direction -1 -4.4901e-011 2.80737e-026   
     length 0.609409   
     axis -1.79203e-014 -90 -90   XYZ
    dof rx
    limits (0.0 90.0)
  end
  begin
     id 30
     name rthumb
     direction -0.707107 -6.34968e-011 0.707107   
     length 0.874992   
     axis -90 -45 4.48555e-014   XYZ
    dof rx rz
    limits (-45.0 45.0)
           (-45.0 45.0)
  end
:hierarchy
  begin
    root lhipjoint rhipjoint lowerback
    lhipjoint lfemur
    lfemur ltibia
    ltibia lfoot
    lfoot ltoes
    rhipjoint rfemur
    rfemur rtibia
    rtibia rfoot
    rfoot rtoes
    lowerback upperback
    upperback thorax
    thorax lowerneck lclavicle rclavicle
    lowerneck upperneck
    upperneck head
    lclavicle lhumerus
    lhumerus lradius
    lradius lwrist
    lwrist lhand lthumb
    lhand lfingers
    rclavicle rhumerus
    rhumerus rradius
    rradius rwrist
    rwrist rhand rthumb
    rhand rfingers
  end

#!OML:ASF C:\ViconDB\ViconDB\414\Spring2016\041811\Spring2016.ASF
:FULLY-SPECIFIED
:DEGREES
47
root 11.1862 17.7414 18.2904 14.1269 -83.5083 -14.3582
lowerback 3.00168 -1.87758 -1.91537
upperback 0.675133 -2.56086 0.647345
thorax -0.875322 -1.27896 1.82863
lowerneck 2.07839 -11.8187 -27.595
upperneck 17.7724 -20.9063 23.1324
head 10.9025 -10.8696 10.4514
rclavicle 2.52022e-014 -6.95746e-015
rhumerus 1.35352 -26.9742 -0.52772
rradius 67.8737
rwrist 15.4262
rhand -58.1099 -26.4785
rfingers 7.12502
rthumb -30.3507 -54.0017
lclavicle 2.52022e-014 -6.95746e-015
lhumerus -4.3317 9.13011 3.15686
lradius 43.5075
lwrist 5.17262
lhand -45.7989 36.8456
lfingers 7.12502
lthumb -18.5522 65.9809
rfemur 162.893 35.3675 -175.584
rtibia 35.0656
rfoot -16.8373 -47.6028
rtoes -28.3542
lfemur -13.8953 -4.25354 -5.33255
ltibia 39.0274
lfoot -27.1333 2.99089
ltoes -16.4539
48
root 11.1785 17.7475 18.317 14.18 -83.8339 -14.4417
lowerback 2.96673 -1.79097 -2.15564
upperback 0.659185 -2.45227 0.616561
thorax -0.868263 -1.22408 1.92693
lowerneck 2.30278 -11.8104 -27.5195
upperneck 17.7018 -21.0092 23.3085
head 10.8805 -10.9282 10.5053
rclavicle 1.56046e-014 -3.57812e-015
rhumerus 1.3965 -26.7667 -0.673155
rradius 67.6405
rwrist 15.4444
rhand -57.9342 -26.3331
rfingers 7.12502
rthumb -30.1831 -53.8871
lclavicle 1.56046e-014 -3.57812e-015
lhumerus -4.43207 8.91802 3.15935
lradius 43.7835
lwrist 5.26281
lhand -45.8112 37.1344
lfingers 7.12502
lthumb -18.5641 66.2686
rfemur 163.009 34.477 -175.715
rtibia 34.9442
rfoot -16.1555 -47.4387
rtoes -28.5012
lfemur -13.5969 -4.64375 -5.56325
ltibia 38.8642
lfoot -27.5477 3.56922
ltoes -16.0371
49
root 11.1702 17.7505 18.3425 14.0051 -84.2366 -14.3421
lowerback 3.02692 -1.65235 -2.46835
upperback 0.631668 -2.27892 0.591924
thorax -0.92737 -1.13564 2.07369
lowerneck 2.5735 -11.8212 -27.4897
upperneck 17.6068 -21.1593 23.5267
head 10.8679 -11.014 10.5762
rclavicle 7.45443e-016 -2.78299e-015
rhumerus 1.30439 -26.5283 -0.729676
rradius 67.4804
rwrist 15.314
rhand -57.8681 -25.5812
rfingers 7.12502
rthumb -30.12 -53.1467
lclavicle 7.45443e-016 -2.78299e-015
lhumerus -4.4926 8.71476 3.24464
lradius 44.0311
lwrist 5.44223
lhand -45.8535 36.9284
lfingers 7.12502
lthumb -18.6048 66.0587
rfemur 163.107 34.1596 -175.861
rtibia 34.8345
rfoot -16.3047 -47.404
rtoes -28.5644
lfemur -13.2539 -4.73207 -5.8013
ltibia 38.7372
lfoot -27.9084 3.92622
ltoes -15.5827
50
root 11.1638 17.7532 18.3669 15.2857 -84.5947 -15.7011
lowerback 3.01577 -1.53056 -2.63677
upperback 0.687716 -2.12119 0.623102
thorax -0.864752 -1.05826 2.19327
lowerneck 2.67152 -11.8626 -27.4694
upperneck 17.5382 -21.2881 23.6862
head 10.8855 -11.0769 10.6167
rclavicle 8.01351e-016 -8.34896e-015
rhumerus 1.25643 -26.4129 -0.77152
rradius 67.3386
rwrist 15.2802
rhand -57.6368 -25.3649
rfingers 7.12502
rthumb -29.8993 -52.9703
lclavicle 8.01351e-016 -8.34896e-015
lhumerus -4.59499 8.63564 3.31635
lradius 44.2215
lwrist 5.32974
lhand -45.7345 36.8121
lfingers 7.12502
lthumb -18.4903 65.9533
rfemur 163.198 33.5525 -175.844
rtibia 34.7534
rfoot -15.9586 -47.3592
rtoes -28.4632
lfemur -12.9423 -4.74113 -5.84687
ltibia 38.6394
lfoot -27.9958 4.08825
ltoes -15.3867
51
root 11.1589 17.7552 18.3923 14.5345 -85.0147 -14.8595
lowerback 2.84251 -1.41837 -2.94281
upperback 0.677342 -1.97635 0.545871
thorax -0.778973 -0.986448 2.27569
lowerneck 2.87285 -11.8602 -27.4337
upperneck 17.4488 -21.3816 23.862
head 10.8646 -11.1315 10.6765
rclavicle -2.57799e-014 -1.17283e-014
rhumerus 1.16654 -26.2488 -0.860592
rradius 67.2769
rwrist 15.4345
rhand -57.5436 -25.1528
rfingers 7.12502
rthumb -29.8104 -52.7743
lclavicle -2.57799e-014 -1.17283e-014
lhumerus -4.782 8.27814 3.21649
lradius 44.5593
lwrist 5.52763
lhand -45.6889 37.01
lfingers 7.12502
lthumb -18.4464 66.1554
rfemur 163.496 33.3245 -175.95
rtibia 34.6866
rfoot -16.0709 -47.4077
rtoes -28.3165
lfemur -12.8112 -4.69169 -6.13833
ltibia 38.5831
lfoot -27.9458 4.28186
ltoes -15.735
52
root 11.1556 17.754 18.4136 13.2544 -85.4352 -13.5598
lowerback 2.78434 -1.3061 -3.30245
upperback 0.694417 -1.83595 0.451013
thorax -0.729119 -0.91697 2.37367
lowerneck 3.05451 -11.8381 -27.4197
upperneck 17.2793 -21.4512 24.1557
head 10.832 -11.1715 10.7911
rclavicle 2.4289e-014 -1.07344e-014
rhumerus 1.05373 -26.0459 -0.893398
rradius 67.0726
rwrist 15.5592
rhand -57.4413 -25.4277
rfingers 7.12502
rthumb -29.7128 -53.0666
lclavicle 2.4289e-014 -1.07344e-014
lhumerus -4.94409 8.16534 3.11879
lradius 44.7702
lwrist 5.291
lhand -45.6824 36.9489
lfingers 7.12502
lthumb -18.4402 66.0949
rfemur 163.711 33.252 -176.106
rtibia 34.6381
rfoot -16.3257 -47.4863
rtoes -28.0413
lfemur -12.6363 -4.50043 -6.43781
ltibia 38.5391
lfoot -27.8046 4.39199
ltoes -16.2501
53
root 11.1474 17.7574 18.4386 14.9028 -85.7818 -15.1157
lowerback 2.61525 -1.22234 -3.3283
upperback 0.682726 -1.71916 0.414073
thorax -0.654437 -0.859594 2.34255
lowerneck 3.21527 -11.8391 -27.4004
upperneck 17.1459 -21.5165 24.3139
head 10.7942 -11.2099 10.8466
rclavicle -1.2424e-015 -4.17448e-015
rhumerus 0.972906 -25.8391 -0.926709
rradius 66.9885
rwrist 15.719
rhand -57.3203 -25.4118
rfingers 7.12502
rthumb -29.5973 -53.0713
lclavicle -1.2424e-015 -4.17448e-015
lhumerus -5.18155 7.97094 2.96152
lradius 45.0116
lwrist 5.41787
lhand -45.705 36.6373
lfingers 7.12502
lthumb -18.4619 65.7812
rfemur 164.009 33.3657 -175.964
rtibia 34.5739
rfoot -16.8921 -47.4339
rtoes -27.968
lfemur -12.5366 -4.31254 -6.501
ltibia 38.5254
lfoot -27.8046 4.39199
ltoes -16.2501
54
root 11.1427 17.7581 18.4649 13.9121 -86.0262 -14.0656
lowerback 2.52401 -1.18306 -3.50718
upperback 0.669878 -1.6688 0.343764
thorax -0.616734 -0.834758 2.36712
lowerneck 3.38218 -11.799 -27.4451
upperneck 17.0386 -21.5292 24.4844
head 10.7587 -11.2292 10.9325
rclavicle 2.4612e-014 6.36111e-015
rhumerus 0.886006 -25.639 -0.90149
rradius 66.928
rwrist 15.8414
rhand -57.2723 -25.0947
rfingers 7.12502
rthumb -29.5515 -52.7622
lclavicle 2.4612e-014 6.36111e-015
lhumerus -5.35686 7.93953 2.86812
lradius 45.0821
lwrist 5.01987
lhand -45.4046 36.0372
lfingers 7.12502
lthumb -18.173 65.2083
rfemur 164.198 33.2669 -176.11
rtibia 34.4917
rfoot -17.092 -47.4213
rtoes -28.221
lfemur -12.4936 -4.3034 -6.77418
ltibia 38.5305
lfoot -27.8046 4.39199
ltoes -16.2501
55
root 11.1406 17.7605 18.4915 14.8448 -86.3753 -14.8917
lowerback 2.44206 -1.10132 -3.50842
upperback 0.59713 -1.55831 0.250179
thorax -0.655489 -0.777576 2.26791
lowerneck 3.63062 -11.7293 -27.4782
upperneck 16.9142 -21.5358 24.7096
head 10.706 -11.2525 11.0477
rclavicle 8.08805e-015 7.95139e-015
rhumerus 0.833523 -25.5019 -0.976908
rradius 66.8165
rwrist 16.1634
rhand -57.0443 -24.7572
rfingers 7.12502
rthumb -29.3337 -52.4631
lclavicle 8.08805e-015 7.95139e-015
lhumerus -5.54585 7.65737 2.71448
lradius 45.2729
lwrist 5.11765
lhand -45.6365 35.7465
lfingers 7.12502
lthumb -18.3961 64.8966
rfemur 164.562 33.0837 -176.043
rtibia 34.3698
rfoot -17.2002 -47.4647
rtoes -28.1423
lfemur -12.4854 -4.30308 -6.95202
ltibia 38.5872
lfoot -27.8046 4.39199
ltoes -16.2501
56
root 11.135 17.7619 18.5163 17.9602 -86.6076 -17.9362
lowerback 2.26163 -1.0388 -3.43176
upperback 0.631228 -1.46565 0.236079
thorax -0.527783 -0.734059 2.20359
lowerneck 3.71752 -11.7277 -27.4692
upperneck 16.816 -21.5708 24.8351
head 10.6829 -11.2726 11.0943
rclavicle -1.3828e-014 -7.15625e-015
rhumerus 0.750078 -25.439 -0.955225
rradius 66.7579
rwrist 16.4025
rhand -56.9062 -24.0376
rfingers 7.12502
rthumb -29.2019 -51.7665
lclavicle -1.3828e-014 -7.15625e-015
lhumerus -5.62308 7.82815 2.65488
lradius 45.3105
lwrist 4.77197
lhand -45.4864 35.8317
lfingers 7.12502
lthumb -18.2517 64.9954
rfemur 164.839 32.8118 -175.857
rtibia 34.2423
rfoot -17.0232 -47.5985
rtoes -27.8524
lfemur -12.474 -4.34634 -6.94771
ltibia 38.6649
lfoot -27.8046 4.39199
ltoes -16.2501
57
root 11.1333 17.7594 18.5422 19.5834 -86.8157 -19.5159
lowerback 2.28355 -1.00901 -3.40263
upperback 0.578605 -1.42708 0.198742
thorax -0.598191 -0.712726 2.14919
lowerneck 3.89374 -11.6892 -27.4344
upperneck 16.7469 -21.5488 24.8388
head 10.612 -11.2748 11.1044
rclavicle 1.98412e-014 -7.95139e-016
rhumerus 0.741117 -25.2825 -0.939428
rradius 66.7238
rwrist 16.4644
rhand -56.8836 -24.6162
rfingers 7.12502
rthumb -29.1803 -52.3488
lclavicle 1.98412e-014 -7.95139e-016
lhumerus -5.90117 7.61137 2.49216
lradius 45.439
lwrist 4.57558
lhand -45.4822 36.0286
lfingers 7.12502
lthumb -18.2476 65.1927
rfemur 165.115 33.6016 -175.727
rtibia 34.1168
rfoot -18.4038 -47.7254
rtoes -27.8241
lfemur -12.4788 -4.45438 -7.05195
ltibia 38.7692
lfoot -27.8046 4.39199
ltoes -16.2501
